<svg width="214" height="58" viewBox="0 0 214 58" fill="none" xmlns="http://www.w3.org/2000/svg" xmlns:xlink="http://www.w3.org/1999/xlink">
 <path d="M28.6391 50.8979C36.8793 50.8979 44.0697 46.4139 47.9073 39.7484L45.1606 38.1737C41.8479 43.8693 35.708 47.7068 28.6391 47.7068C18.0965 47.7068 9.57293 39.143 9.57293 28.6407C9.57293 18.0973 18.0965 9.53425 28.6391 9.53425C35.708 9.53425 41.8479 13.3718 45.1606 19.0674L47.9073 17.4919C44.0697 10.8263 36.8793 6.34235 28.6391 6.34235C16.3593 6.34235 6.38184 16.3206 6.38184 28.6407C6.38184 40.9205 16.3593 50.8979 28.6391 50.8979Z" fill="#6DB22D">
 </path>
 <path d="M64.428 19.0677H63.6206V38.174H64.428V19.0677Z" fill="#164194">
 </path>
 <path d="M70.8335 26.2294V19.1112H77.8104V19.9465H71.783V22.1208H77.5549V22.9553H71.783V25.3948H77.8153V26.2294H70.8335Z" fill="#164194">
 </path>
 <path d="M78.6622 21.2809H79.4441V23.7895C79.4441 24.2519 79.4688 24.5829 79.5181 24.7825C79.5656 24.9821 79.6618 25.1456 79.8039 25.2705C79.9469 25.392 80.1431 25.4775 80.3961 25.5284C80.6475 25.5785 81.004 25.6039 81.4623 25.6039C82.057 25.6039 82.5186 25.5588 82.8472 25.4684C83.1757 25.3781 83.4221 25.2286 83.5897 25.0199C83.694 24.8943 83.7663 24.7374 83.8065 24.5477C83.846 24.3587 83.8657 24.0844 83.8657 23.7271V21.2809H84.6485V26.229H83.8657V25.489H83.8188C83.6209 25.8052 83.3572 26.0187 83.0261 26.128C82.696 26.2373 82.1448 26.2923 81.3735 26.2923C80.769 26.2923 80.2943 26.2561 79.95 26.1831C79.6051 26.1091 79.3364 25.9884 79.1418 25.8175C78.9643 25.6648 78.8395 25.4544 78.7689 25.1867C78.6974 24.9189 78.6621 24.5296 78.6621 24.0187V21.2809H78.6622Z" fill="#164194">
 </path>
 <path d="M85.8135 21.2809H86.5962V21.9487H86.648C86.7696 21.7261 86.956 21.5503 87.2057 21.4214C87.3552 21.3458 87.5532 21.2924 87.798 21.2629C88.0427 21.2333 88.409 21.2185 88.8945 21.2185C89.3824 21.2185 89.7438 21.2456 89.9829 21.299C90.2202 21.3524 90.4248 21.4517 90.5948 21.5939C90.9291 21.8822 91.0959 22.3504 91.0959 22.996V23.5077H90.2925V23.1529C90.2925 22.8785 90.2752 22.6707 90.2375 22.5303C90.2013 22.3898 90.1365 22.2732 90.0428 22.1828C89.844 21.9988 89.4325 21.9068 88.8066 21.9068C87.8645 21.9068 87.2608 22.0292 86.9946 22.274C86.7285 22.5196 86.5962 23.0765 86.5962 23.9463V26.229H85.8135V21.2809V21.2809Z" fill="#164194">
 </path>
 <path d="M94.9201 21.2182C95.6981 21.2182 96.2738 21.2412 96.6426 21.288C97.0131 21.3365 97.303 21.4219 97.5108 21.5468C97.8246 21.7348 98.0497 22.001 98.1893 22.3476C98.329 22.6934 98.3988 23.1633 98.3988 23.7572C98.3988 24.4183 98.3142 24.9202 98.1474 25.2652C98.0259 25.5256 97.8632 25.7293 97.6603 25.8747C97.4575 26.0209 97.1897 26.1269 96.8595 26.1926C96.5391 26.2591 96.0077 26.2919 95.2644 26.2919C94.562 26.2919 94.0322 26.269 93.6741 26.2213C93.316 26.1753 93.0252 26.0907 92.8034 25.9683C92.4733 25.7909 92.2358 25.5297 92.0938 25.1839C91.9508 24.8381 91.8794 24.3542 91.8794 23.7317C91.8794 23.0359 91.982 22.5094 92.1874 22.1513C92.3961 21.7833 92.6843 21.5369 93.0531 21.4112C93.4211 21.2864 94.0437 21.2215 94.9201 21.2182ZM95.045 21.9065C94.5276 21.9065 94.1357 21.9254 93.8712 21.9632C93.6076 22.0027 93.3982 22.0717 93.2404 22.1726C93.0564 22.2909 92.9233 22.4774 92.8388 22.7329C92.7558 22.9883 92.7148 23.3374 92.7148 23.7785C92.7148 24.2787 92.769 24.6541 92.8807 24.9021C92.9923 25.151 93.1829 25.3277 93.454 25.432C93.753 25.5462 94.3362 25.6036 95.2011 25.6036C95.7646 25.6036 96.1793 25.5831 96.4455 25.5412C96.7108 25.5001 96.9219 25.4213 97.0788 25.3071C97.253 25.1847 97.377 25.0032 97.4517 24.7584C97.5265 24.5161 97.5634 24.1727 97.5634 23.7317C97.5634 23.2101 97.5051 22.8282 97.3868 22.585C97.2538 22.314 97.0336 22.1325 96.7264 22.042C96.4192 21.9517 95.8582 21.9065 95.045 21.9065Z" fill="#164194">
 </path>
 <path d="M99.4531 28.0079V21.2806H100.236V21.9172H100.284C100.454 21.6347 100.693 21.4482 101.002 21.3562C101.311 21.2642 101.856 21.2182 102.634 21.2182C103.305 21.2182 103.81 21.2428 104.15 21.2913C104.489 21.3406 104.768 21.4285 104.986 21.5575C105.327 21.7554 105.559 22.0265 105.685 22.3706C105.811 22.7041 105.872 23.1673 105.872 23.7572C105.872 24.5054 105.758 25.0558 105.529 25.4106C105.299 25.7687 104.988 26.0053 104.597 26.1195C104.207 26.2353 103.525 26.2919 102.551 26.2919C101.838 26.2919 101.328 26.2476 101.019 26.1589C100.709 26.0702 100.463 25.8977 100.284 25.6398H100.236V28.0079H99.4531V28.0079ZM102.817 21.9065C102.187 21.9065 101.72 21.9271 101.415 21.9665C101.108 22.0068 100.881 22.0774 100.731 22.1776C100.547 22.3033 100.413 22.4848 100.333 22.723C100.251 22.9604 100.21 23.2881 100.21 23.7054C100.21 24.1958 100.254 24.5662 100.343 24.8168C100.431 25.0673 100.583 25.2513 100.798 25.3687C101.084 25.5256 101.66 25.6036 102.53 25.6036C103.111 25.6036 103.548 25.5839 103.842 25.5437C104.135 25.5035 104.358 25.4336 104.511 25.3326C104.699 25.2077 104.834 25.0237 104.915 24.7822C104.997 24.5407 105.038 24.2064 105.038 23.7793C105.038 23.2955 104.994 22.9316 104.908 22.686C104.821 22.4413 104.67 22.2598 104.454 22.1415C104.176 21.9854 103.631 21.9065 102.817 21.9065Z" fill="#164194">
 </path>
 <path d="M112.34 24.7017H113.159C113.144 25.2922 112.936 25.7054 112.533 25.9403C112.13 26.1745 111.427 26.2919 110.426 26.2919C109.599 26.2919 108.971 26.2599 108.541 26.1958C108.112 26.1317 107.788 26.0224 107.569 25.8697C107.068 25.5148 106.818 24.8142 106.818 23.7686C106.818 23.0351 106.924 22.4839 107.136 22.1159C107.338 21.7644 107.629 21.527 108.009 21.4038C108.39 21.2797 109.025 21.2181 109.915 21.2181C110.767 21.2181 111.382 21.2633 111.761 21.3537C112.14 21.4449 112.443 21.619 112.669 21.8753C112.856 22.0913 112.985 22.341 113.055 22.6269C113.124 22.911 113.162 23.3464 113.17 23.9296H107.657C107.679 24.5456 107.8 24.9678 108.023 25.197C108.172 25.353 108.411 25.4598 108.74 25.5181C109.069 25.5748 109.602 25.6035 110.342 25.6035C110.903 25.6035 111.313 25.5781 111.574 25.5255C111.834 25.4738 112.03 25.3777 112.158 25.2388C112.255 25.1305 112.315 24.9522 112.34 24.7017ZM112.304 23.2626C112.301 22.7789 112.172 22.4412 111.918 22.2507C111.751 22.1225 111.517 22.033 111.216 21.9821C110.916 21.932 110.475 21.9066 109.895 21.9066C109.386 21.9066 109.001 21.9304 108.734 21.9772C108.468 22.024 108.261 22.1062 108.112 22.2244C107.864 22.4158 107.721 22.7624 107.684 23.2626H112.304Z" fill="#164194">
 </path>
 <path d="M115.048 22.7672H114.235C114.228 22.6768 114.225 22.6054 114.225 22.5536C114.225 22.0353 114.42 21.6829 114.808 21.4948C115.199 21.3067 115.928 21.2131 116.999 21.2131C117.84 21.2131 118.445 21.2517 118.813 21.3281C119.181 21.4045 119.471 21.5507 119.679 21.7659C119.852 21.94 119.966 22.1454 120.018 22.3811C120.07 22.6177 120.096 23.0308 120.096 23.6222V26.2301H119.319L119.335 25.6503H119.293C119.098 25.9221 118.864 26.0963 118.592 26.1751C118.318 26.2532 117.804 26.2917 117.045 26.2917C116.18 26.2917 115.579 26.2712 115.241 26.2301C114.904 26.1883 114.649 26.1012 114.475 25.9689C114.302 25.8433 114.181 25.6946 114.113 25.5205C114.044 25.3463 114.011 25.1032 114.011 24.7902C114.011 24.4075 114.063 24.1134 114.164 23.9089C114.267 23.7036 114.44 23.5516 114.683 23.4506C114.947 23.3356 115.565 23.2781 116.535 23.2781C117.549 23.2781 118.214 23.3085 118.527 23.3701C118.84 23.43 119.081 23.5771 119.251 23.8095H119.319V23.2781C119.319 22.8436 119.241 22.5306 119.085 22.34C118.946 22.1692 118.735 22.0542 118.451 21.9926C118.168 21.9318 117.705 21.9014 117.061 21.9014C116.216 21.9014 115.67 21.9515 115.422 22.05C115.173 22.1487 115.048 22.3655 115.048 22.699V22.7672H115.048ZM117.051 23.9721C116.408 23.9721 115.957 23.9836 115.7 24.0058C115.442 24.028 115.26 24.0708 115.153 24.1332C114.947 24.2555 114.845 24.4789 114.845 24.8058C114.845 25.1295 114.966 25.3488 115.21 25.463C115.409 25.5566 116.076 25.6034 117.213 25.6034C118.043 25.6034 118.592 25.5501 118.86 25.4424C119.128 25.3348 119.261 25.1155 119.261 24.7853C119.261 24.4658 119.112 24.2498 118.813 24.1389C118.514 24.0272 117.927 23.9721 117.051 23.9721Z" fill="#164194">
 </path>
 <path d="M121.224 21.2809H122.007V22.0267H122.064C122.23 21.7097 122.486 21.4961 122.828 21.3852C123.17 21.2743 123.748 21.2185 124.562 21.2185C125.271 21.2185 125.797 21.257 126.139 21.336C126.482 21.414 126.75 21.5552 126.945 21.7606C127.097 21.924 127.205 22.1286 127.265 22.3742C127.325 22.6181 127.357 22.9722 127.357 23.4346V26.229H126.574V23.7681C126.574 23.327 126.557 23.0091 126.52 22.8169C126.483 22.6239 126.409 22.4613 126.298 22.329C126.166 22.1762 125.964 22.0678 125.691 22.0029C125.417 21.9388 125.01 21.9068 124.468 21.9068C123.862 21.9068 123.392 21.9511 123.054 22.0391C122.717 22.1286 122.464 22.2732 122.294 22.4752C122.175 22.6206 122.098 22.7857 122.062 22.9672C122.025 23.1504 122.007 23.4748 122.007 23.9405V26.229H121.224V21.2809H121.224Z" fill="#164194">
 </path>
 <path d="M132.519 19.1112H131.57V26.2294H132.519V19.1112Z" fill="#164194">
 </path>
 <path d="M133.787 21.2809H134.569V22.0267H134.627C134.793 21.7097 135.048 21.4961 135.39 21.3852C135.733 21.2743 136.311 21.2185 137.124 21.2185C137.834 21.2185 138.359 21.257 138.702 21.336C139.044 21.414 139.313 21.5552 139.507 21.7606C139.66 21.924 139.767 22.1286 139.828 22.3742C139.888 22.6181 139.92 22.9722 139.92 23.4346V26.229H139.137V23.7681C139.137 23.327 139.119 23.0091 139.083 22.8169C139.046 22.6239 138.972 22.4613 138.861 22.329C138.729 22.1762 138.527 22.0678 138.253 22.0029C137.98 21.9388 137.573 21.9068 137.031 21.9068C136.425 21.9068 135.954 21.9511 135.617 22.0391C135.28 22.1286 135.026 22.2732 134.857 22.4752C134.738 22.6206 134.66 22.7857 134.625 22.9672C134.587 23.1504 134.569 23.4748 134.569 23.9405V26.229H133.787V21.2809Z" fill="#164194">
 </path>
 <path d="M140.912 24.5034H141.747V24.6439C141.747 24.9125 141.775 25.103 141.833 25.2181C141.89 25.3322 142.004 25.4217 142.174 25.4833C142.401 25.5647 143.05 25.6041 144.125 25.6041C144.795 25.6041 145.263 25.5885 145.525 25.5597C145.787 25.5302 145.976 25.4718 146.091 25.3848C146.247 25.2665 146.325 25.0842 146.325 24.8369C146.325 24.5379 146.232 24.3334 146.044 24.225C145.856 24.1149 145.514 24.0615 145.016 24.0648C144.86 24.0689 144.108 24.0599 142.759 24.0393C142.407 24.032 142.126 24.0048 141.916 23.9556C141.706 23.9071 141.531 23.8291 141.392 23.7215C141.128 23.5161 140.995 23.1695 140.995 22.6832C140.995 22.169 141.161 21.7953 141.491 21.562C141.666 21.4405 141.95 21.3526 142.347 21.2992C142.742 21.245 143.313 21.2179 144.057 21.2179C144.887 21.2179 145.501 21.2639 145.895 21.3542C146.289 21.4437 146.578 21.6039 146.763 21.8339C146.853 21.9448 146.912 22.0622 146.937 22.1855C146.964 22.3095 146.977 22.5165 146.977 22.8089H146.153C146.15 22.5066 146.099 22.3078 146.002 22.2142C145.894 22.1066 145.686 22.0278 145.376 21.9801C145.067 21.9308 144.619 21.9062 144.03 21.9062C142.96 21.9062 142.31 21.9817 142.081 22.1304C141.913 22.2429 141.83 22.4294 141.83 22.6939C141.83 22.965 141.928 23.144 142.122 23.2311C142.316 23.3181 142.71 23.3568 143.301 23.3453C143.885 23.3354 144.641 23.3494 145.569 23.388C146.132 23.4085 146.538 23.5317 146.786 23.7576C147.035 23.9835 147.159 24.3416 147.159 24.832C147.159 25.1277 147.116 25.3667 147.029 25.5515C146.942 25.7355 146.801 25.8875 146.607 26.0049C146.436 26.1092 146.159 26.1832 145.773 26.2267C145.387 26.2703 144.829 26.2924 144.099 26.2924C143.282 26.2924 142.675 26.2669 142.281 26.2193C141.887 26.17 141.598 26.0838 141.414 25.9581C141.225 25.8333 141.094 25.6822 141.019 25.5047C140.945 25.3273 140.907 25.0809 140.907 24.7638C140.907 24.7227 140.909 24.6357 140.912 24.5034Z" fill="#164194">
 </path>
 <path d="M148.976 20.0557H149.759V21.2812H153.22V21.9482H149.759V24.097C149.766 24.566 149.777 24.8534 149.794 24.957C149.812 25.0612 149.863 25.1656 149.946 25.2708C150.043 25.3914 150.189 25.4777 150.384 25.5286C150.579 25.5788 150.864 25.6034 151.239 25.6034C151.59 25.6034 151.846 25.5795 152.006 25.5311C152.166 25.4826 152.291 25.3931 152.382 25.265C152.44 25.1746 152.48 25.067 152.498 24.9414C152.518 24.8165 152.527 24.6046 152.527 24.3047V23.9926H153.304V24.3047C153.304 24.6842 153.286 24.9717 153.25 25.1689C153.213 25.3643 153.144 25.5377 153.044 25.6872C152.898 25.9024 152.68 26.0576 152.392 26.1513C152.103 26.2457 151.698 26.2917 151.177 26.2917C150.641 26.2917 150.223 26.2489 149.923 26.1619C149.622 26.0748 149.399 25.9319 149.252 25.7348C149.146 25.5886 149.072 25.4194 149.034 25.228C148.995 25.0366 148.976 24.7466 148.976 24.3573V21.9482H147.761V21.2812H148.976V20.0557H148.976Z" fill="#164194">
 </path>
 <path d="M154.219 19.1112H155.002V20.0394H154.219V19.1112ZM154.219 21.2813H155.002V26.2294H154.219V21.2813Z" fill="#164194">
 </path>
 <path d="M156.953 20.0557H157.735V21.2812H161.198V21.9482H157.735V24.097C157.742 24.566 157.754 24.8534 157.772 24.957C157.79 25.0612 157.84 25.1656 157.923 25.2708C158.02 25.3914 158.167 25.4777 158.361 25.5286C158.556 25.5788 158.841 25.6034 159.216 25.6034C159.567 25.6034 159.823 25.5795 159.984 25.5311C160.143 25.4826 160.269 25.3931 160.359 25.265C160.417 25.1746 160.457 25.067 160.476 24.9414C160.495 24.8165 160.504 24.6046 160.504 24.3047V23.9926H161.281V24.3047C161.281 24.6842 161.263 24.9717 161.227 25.1689C161.19 25.3643 161.121 25.5377 161.021 25.6872C160.874 25.9024 160.657 26.0576 160.369 26.1513C160.08 26.2457 159.676 26.2917 159.154 26.2917C158.618 26.2917 158.2 26.2489 157.9 26.1619C157.599 26.0748 157.376 25.9319 157.229 25.7348C157.122 25.5886 157.049 25.4194 157.011 25.228C156.972 25.0366 156.953 24.7466 156.953 24.3573V21.9482H155.738V21.2812H156.953V20.0557V20.0557Z" fill="#164194">
 </path>
 <path d="M162.123 21.2809H162.905V23.7895C162.905 24.2519 162.929 24.5829 162.978 24.7825C163.026 24.9821 163.122 25.1456 163.265 25.2705C163.407 25.392 163.604 25.4775 163.857 25.5284C164.108 25.5785 164.464 25.6039 164.923 25.6039C165.517 25.6039 165.979 25.5588 166.307 25.4684C166.636 25.3781 166.882 25.2286 167.05 25.0199C167.154 24.8943 167.227 24.7374 167.267 24.5477C167.306 24.3587 167.327 24.0844 167.327 23.7271V21.2809H168.109V26.229H167.327V25.489H167.28C167.081 25.8052 166.818 26.0187 166.487 26.128C166.156 26.2373 165.605 26.2923 164.834 26.2923C164.229 26.2923 163.755 26.2561 163.411 26.1831C163.065 26.1091 162.797 25.9884 162.602 25.8175C162.425 25.6648 162.301 25.4544 162.229 25.1867C162.159 24.9189 162.123 24.5296 162.123 24.0187V21.2809H162.123Z" fill="#164194">
 </path>
 <path d="M170.025 20.0557H170.808V21.2812H174.269V21.9482H170.808V24.097C170.815 24.566 170.826 24.8534 170.843 24.957C170.861 25.0612 170.912 25.1656 170.995 25.2708C171.092 25.3914 171.238 25.4777 171.433 25.5286C171.628 25.5788 171.913 25.6034 172.288 25.6034C172.639 25.6034 172.895 25.5795 173.055 25.5311C173.215 25.4826 173.34 25.3931 173.431 25.265C173.489 25.1746 173.528 25.067 173.548 24.9414C173.567 24.8165 173.576 24.6046 173.576 24.3047V23.9926H174.353V24.3047C174.353 24.6842 174.335 24.9717 174.299 25.1689C174.262 25.3643 174.193 25.5377 174.093 25.6872C173.947 25.9024 173.729 26.0576 173.441 26.1513C173.151 26.2457 172.747 26.2917 172.226 26.2917C171.69 26.2917 171.272 26.2489 170.971 26.1619C170.671 26.0748 170.447 25.9319 170.301 25.7348C170.194 25.5886 170.121 25.4194 170.083 25.228C170.044 25.0366 170.025 24.7466 170.025 24.3573V21.9482H168.81V21.2812H170.025V20.0557Z" fill="#164194">
 </path>
 <path d="M180.721 24.7017H181.54C181.526 25.2922 181.319 25.7054 180.914 25.9403C180.512 26.1745 179.81 26.2919 178.808 26.2919C177.98 26.2919 177.352 26.2599 176.922 26.1958C176.493 26.1317 176.169 26.0224 175.95 25.8697C175.449 25.5148 175.199 24.8142 175.199 23.7686C175.199 23.0351 175.305 22.4839 175.517 22.1159C175.719 21.7644 176.011 21.527 176.391 21.4038C176.771 21.2797 177.407 21.2181 178.297 21.2181C179.148 21.2181 179.764 21.2633 180.143 21.3537C180.522 21.4449 180.824 21.619 181.05 21.8753C181.237 22.0913 181.366 22.341 181.436 22.6269C181.506 22.911 181.544 23.3464 181.551 23.9296H176.039C176.06 24.5456 176.182 24.9678 176.404 25.197C176.554 25.353 176.792 25.4598 177.121 25.5181C177.45 25.5748 177.984 25.6035 178.725 25.6035C179.284 25.6035 179.694 25.5781 179.955 25.5255C180.215 25.4738 180.411 25.3777 180.539 25.2388C180.636 25.1305 180.697 24.9522 180.721 24.7017ZM180.685 23.2626C180.682 22.7789 180.553 22.4412 180.299 22.2507C180.132 22.1225 179.898 22.033 179.599 21.9821C179.297 21.932 178.856 21.9066 178.276 21.9066C177.768 21.9066 177.382 21.9304 177.115 21.9772C176.85 22.024 176.642 22.1062 176.493 22.2244C176.246 22.4158 176.103 22.7624 176.065 23.2626H180.685Z" fill="#164194">
 </path>
 <path d="M188.49 21.2182C189.268 21.2182 189.844 21.2412 190.212 21.288C190.583 21.3365 190.873 21.4219 191.081 21.5468C191.394 21.7348 191.62 22.001 191.759 22.3476C191.899 22.6934 191.969 23.1633 191.969 23.7572C191.969 24.4183 191.884 24.9202 191.717 25.2652C191.596 25.5256 191.433 25.7293 191.23 25.8747C191.027 26.0209 190.76 26.1269 190.429 26.1926C190.109 26.2591 189.578 26.2919 188.833 26.2919C188.131 26.2919 187.602 26.269 187.244 26.2213C186.886 26.1753 186.595 26.0907 186.373 25.9683C186.043 25.7909 185.806 25.5297 185.664 25.1839C185.521 24.8381 185.449 24.3542 185.449 23.7317C185.449 23.0359 185.552 22.5094 185.757 22.1513C185.966 21.7833 186.254 21.5369 186.623 21.4112C186.991 21.2864 187.614 21.2215 188.49 21.2182ZM188.615 21.9065C188.097 21.9065 187.706 21.9254 187.441 21.9632C187.177 22.0027 186.967 22.0717 186.81 22.1726C186.626 22.2909 186.493 22.4774 186.409 22.7329C186.326 22.9883 186.284 23.3374 186.284 23.7785C186.284 24.2787 186.339 24.6541 186.451 24.9021C186.562 25.151 186.753 25.3277 187.024 25.432C187.323 25.5462 187.906 25.6036 188.771 25.6036C189.334 25.6036 189.749 25.5831 190.015 25.5412C190.281 25.5001 190.492 25.4213 190.649 25.3071C190.822 25.1847 190.947 25.0032 191.022 24.7584C191.096 24.5161 191.133 24.1727 191.133 23.7317C191.133 23.2101 191.074 22.8282 190.957 22.585C190.824 22.314 190.603 22.1325 190.296 22.042C189.988 21.9517 189.428 21.9065 188.615 21.9065Z" fill="#164194">
 </path>
 <path d="M192.523 21.9483V21.2814H193.628C193.642 20.791 193.672 20.4395 193.72 20.2276C193.767 20.0156 193.858 19.8333 193.994 19.6797C194.163 19.485 194.388 19.3495 194.668 19.2706C194.948 19.1926 195.396 19.1425 196.011 19.122L196.913 19.0965V19.7634L196.074 19.7897C195.625 19.8037 195.303 19.8324 195.107 19.876C194.91 19.9187 194.761 19.9967 194.66 20.1076C194.574 20.2021 194.516 20.3187 194.491 20.4567C194.466 20.5964 194.447 20.8707 194.437 21.2814H196.913V21.9483H194.41V26.2295H193.628V21.9483H192.523V21.9483Z" fill="#164194">
 </path>
 <path d="M71.7822 30.8933H70.8335V38.0114H71.7822V30.8933Z" fill="#164194">
 </path>
 <path d="M73.0513 33.0628H73.834V33.8086H73.8907C74.0575 33.4916 74.3129 33.2781 74.6546 33.1671C74.998 33.0562 75.5754 32.9996 76.3894 32.9996C77.0983 32.9996 77.6239 33.039 77.9665 33.1179C78.3082 33.196 78.5776 33.3372 78.7723 33.5425C78.9242 33.706 79.0318 33.9105 79.0917 34.1553C79.1526 34.4 79.1838 34.754 79.1838 35.2165V38.0109H78.401V35.55C78.401 35.1081 78.3829 34.791 78.3468 34.5987C78.3106 34.4057 78.2359 34.2431 78.125 34.1109C77.9936 33.9581 77.7907 33.8497 77.5172 33.7848C77.2445 33.7207 76.837 33.6879 76.295 33.6879C75.6896 33.6879 75.2189 33.7331 74.8813 33.8209C74.5446 33.9105 74.2907 34.055 74.1207 34.2571C74.0024 34.4025 73.9253 34.5676 73.8891 34.7491C73.8521 34.9323 73.834 35.2567 73.834 35.7217V38.0109H73.0513V33.0628Z" fill="#164194">
 </path>
 <path d="M80.3115 33.0628H81.0943V33.8086H81.151C81.3177 33.4916 81.5732 33.2781 81.9149 33.1671C82.2582 33.0562 82.8357 32.9996 83.6497 32.9996C84.3585 32.9996 84.8842 33.039 85.2267 33.1179C85.5684 33.196 85.8379 33.3372 86.0325 33.5425C86.1845 33.706 86.2921 33.9105 86.352 34.1553C86.4128 34.4 86.444 34.754 86.444 35.2165V38.0109H85.6612V35.55C85.6612 35.1081 85.644 34.791 85.607 34.5987C85.5709 34.4057 85.4961 34.2431 85.3852 34.1109C85.2538 33.9581 85.0509 33.8497 84.7775 33.7848C84.5047 33.7207 84.0973 33.6879 83.5552 33.6879C82.9498 33.6879 82.4792 33.7331 82.1416 33.8209C81.8048 33.9105 81.551 34.055 81.3809 34.2571C81.2627 34.4025 81.1855 34.5676 81.1494 34.7491C81.1124 34.9323 81.0943 35.2567 81.0943 35.7217V38.0109H80.3115V33.0628V33.0628Z" fill="#164194">
 </path>
 <path d="M90.5086 33.0005C91.2864 33.0005 91.8622 33.0235 92.231 33.0711C92.6015 33.118 92.8915 33.2034 93.0992 33.3291C93.4122 33.5172 93.6381 33.7833 93.7777 34.1291C93.9173 34.4749 93.9863 34.9448 93.9863 35.5395C93.9863 36.1998 93.9026 36.7026 93.7358 37.0467C93.6143 37.3071 93.4517 37.5108 93.2488 37.6569C93.045 37.8024 92.7781 37.9091 92.4479 37.9749C92.1275 38.0406 91.5961 38.0734 90.8519 38.0734C90.1496 38.0734 89.6207 38.0505 89.2617 38.0028C88.9044 37.9567 88.6136 37.8722 88.3919 37.7506C88.0608 37.5732 87.8243 37.312 87.6822 36.9653C87.5392 36.6203 87.4678 36.1356 87.4678 35.5132C87.4678 34.8173 87.5705 34.2917 87.7758 33.9328C87.9844 33.5657 88.2728 33.3183 88.6416 33.1927C89.0095 33.0679 89.6322 33.0038 90.5086 33.0005ZM90.6335 33.688C90.116 33.688 89.7241 33.7077 89.4605 33.7455C89.1961 33.7841 88.9857 33.8539 88.8289 33.955C88.6449 34.0724 88.5118 34.2589 88.4272 34.5152C88.3442 34.7706 88.3032 35.1189 88.3032 35.5607C88.3032 36.061 88.3573 36.4355 88.4691 36.6836C88.58 36.9325 88.7714 37.109 89.0424 37.2134C89.3414 37.3276 89.9246 37.3851 90.7895 37.3851C91.3529 37.3851 91.767 37.3654 92.0331 37.3227C92.2992 37.2816 92.5103 37.2027 92.6672 37.0885C92.8405 36.967 92.9645 36.7846 93.0401 36.5407C93.1149 36.2975 93.1518 35.955 93.1518 35.5132C93.1518 34.9923 93.0927 34.6096 92.9752 34.3665C92.8421 34.0954 92.6229 33.9139 92.3149 33.8244C92.0076 33.734 91.4466 33.688 90.6335 33.688Z" fill="#164194">
 </path>
 <path d="M94.3013 33.0627H95.2138L97.6131 37.2864H97.696L100.105 33.0627H101.049L98.17 38.0109H97.1539L94.3013 33.0627Z" fill="#164194">
 </path>
 <path d="M102.406 34.5486H101.593C101.586 34.4582 101.583 34.3868 101.583 34.3351C101.583 33.8175 101.777 33.4644 102.166 33.2763C102.556 33.089 103.286 32.9945 104.357 32.9945C105.198 32.9945 105.803 33.0332 106.171 33.1095C106.539 33.1859 106.828 33.3321 107.037 33.5473C107.21 33.7215 107.324 33.9267 107.376 34.1625C107.428 34.3991 107.454 34.8131 107.454 35.4045V38.0116H106.677L106.693 37.4325H106.651C106.456 37.7035 106.222 37.8785 105.95 37.9565C105.676 38.0346 105.162 38.074 104.403 38.074C103.538 38.074 102.937 38.0526 102.599 38.0116C102.262 37.9697 102.007 37.8826 101.833 37.7504C101.659 37.6255 101.538 37.4761 101.47 37.3019C101.402 37.1285 101.369 36.8846 101.369 36.5717C101.369 36.1897 101.42 35.8957 101.522 35.6911C101.625 35.4858 101.798 35.333 102.041 35.232C102.305 35.117 102.923 35.0595 103.893 35.0595C104.907 35.0595 105.572 35.0899 105.885 35.1515C106.198 35.2115 106.438 35.3594 106.609 35.5918H106.677V35.0595C106.677 34.625 106.598 34.3128 106.442 34.1215C106.304 33.9506 106.093 33.8357 105.809 33.7741C105.525 33.7141 105.062 33.6828 104.419 33.6828C103.574 33.6828 103.028 33.733 102.779 33.8315C102.531 33.9309 102.406 34.1469 102.406 34.4813V34.5486ZM104.409 35.7535C103.765 35.7535 103.315 35.765 103.057 35.7873C102.8 35.8094 102.618 35.853 102.511 35.9154C102.305 36.037 102.203 36.2612 102.203 36.5881C102.203 36.9109 102.324 37.1303 102.568 37.2444C102.766 37.338 103.434 37.3856 104.57 37.3856C105.401 37.3856 105.95 37.3315 106.218 37.2238C106.486 37.1163 106.619 36.8977 106.619 36.5667C106.619 36.2472 106.47 36.0312 106.171 35.9203C105.872 35.8094 105.284 35.7535 104.409 35.7535Z" fill="#164194">
 </path>
 <path d="M109.334 31.8376H110.117V33.0631H113.578V33.7301H110.117V35.8788C110.122 36.3479 110.135 36.6345 110.152 36.7389C110.17 36.8432 110.22 36.9475 110.304 37.0527C110.401 37.1734 110.547 37.2597 110.742 37.3106C110.936 37.3607 111.221 37.3854 111.597 37.3854C111.947 37.3854 112.203 37.3615 112.363 37.3131C112.523 37.2638 112.649 37.175 112.739 37.0469C112.798 36.9557 112.837 36.849 112.857 36.7234C112.876 36.5985 112.885 36.3866 112.885 36.0868V35.7746H113.662V36.0868C113.662 36.4662 113.643 36.7538 113.607 36.9501C113.571 37.1463 113.502 37.3197 113.401 37.4692C113.255 37.6844 113.037 37.8396 112.749 37.9333C112.461 38.0269 112.056 38.0737 111.534 38.0737C110.999 38.0737 110.581 38.031 110.28 37.9439C109.979 37.8569 109.756 37.714 109.61 37.516C109.503 37.3706 109.429 37.2015 109.391 37.01C109.353 36.8186 109.334 36.5287 109.334 36.1393V33.7302H108.118V33.0632H109.334V31.8376V31.8376Z" fill="#164194">
 </path>
 <path d="M114.576 30.8933H115.359V31.8214H114.576V30.8933ZM114.576 33.0634H115.359V38.0114H114.576V33.0634Z" fill="#164194">
 </path>
 <path d="M119.496 33.0005C120.274 33.0005 120.85 33.0235 121.219 33.0711C121.589 33.118 121.879 33.2034 122.087 33.3291C122.4 33.5172 122.626 33.7833 122.765 34.1291C122.905 34.4749 122.974 34.9448 122.974 35.5395C122.974 36.1998 122.89 36.7026 122.724 37.0467C122.601 37.3071 122.439 37.5108 122.237 37.6569C122.033 37.8024 121.766 37.9091 121.436 37.9749C121.115 38.0406 120.584 38.0734 119.84 38.0734C119.137 38.0734 118.608 38.0505 118.249 38.0028C117.892 37.9567 117.601 37.8722 117.38 37.7506C117.049 37.5732 116.812 37.312 116.67 36.9653C116.527 36.6203 116.456 36.1356 116.456 35.5132C116.456 34.8173 116.558 34.2917 116.764 33.9328C116.972 33.5657 117.26 33.3183 117.629 33.1927C117.997 33.0679 118.62 33.0038 119.496 33.0005ZM119.621 33.688C119.104 33.688 118.712 33.7077 118.447 33.7455C118.184 33.7841 117.973 33.8539 117.817 33.955C117.633 34.0724 117.5 34.2589 117.415 34.5152C117.332 34.7706 117.291 35.1189 117.291 35.5607C117.291 36.061 117.345 36.4355 117.457 36.6836C117.568 36.9325 117.759 37.109 118.03 37.2134C118.329 37.3276 118.912 37.3851 119.777 37.3851C120.341 37.3851 120.756 37.3654 121.021 37.3227C121.287 37.2816 121.498 37.2027 121.655 37.0885C121.828 36.967 121.952 36.7846 122.028 36.5407C122.103 36.2975 122.14 35.955 122.14 35.5132C122.14 34.9923 122.08 34.6096 121.962 34.3665C121.83 34.0954 121.61 33.9139 121.303 33.8244C120.995 33.734 120.434 33.688 119.621 33.688Z" fill="#164194">
 </path>
 <path d="M124.029 33.0628H124.812V33.8086H124.868C125.035 33.4916 125.29 33.2781 125.632 33.1671C125.975 33.0562 126.553 32.9996 127.366 32.9996C128.076 32.9996 128.601 33.039 128.944 33.1179C129.286 33.196 129.555 33.3372 129.749 33.5425C129.902 33.706 130.009 33.9105 130.069 34.1553C130.13 34.4 130.161 34.754 130.161 35.2165V38.0109H129.379V35.55C129.379 35.1081 129.36 34.791 129.324 34.5987C129.287 34.4057 129.213 34.2431 129.102 34.1109C128.971 33.9581 128.768 33.8497 128.495 33.7848C128.222 33.7207 127.815 33.6879 127.272 33.6879C126.667 33.6879 126.196 33.7331 125.859 33.8209C125.522 33.9105 125.268 34.055 125.098 34.2571C124.98 34.4025 124.903 34.5676 124.867 34.7491C124.829 34.9323 124.812 35.2567 124.812 35.7217V38.0109H124.029V33.0628Z" fill="#164194">
 </path>
 <path d="M141.58 34.5381H142.492V34.9865C142.486 35.5607 142.456 36.0626 142.403 36.4938L143.801 37.2338L143.552 38.0265L142.117 37.2658C141.936 37.4605 141.798 37.5911 141.703 37.6592C141.607 37.7274 141.472 37.789 141.299 37.844C140.846 37.987 139.778 38.0585 138.097 38.0585C137.123 38.0585 136.401 38.028 135.928 37.9697C135.454 37.9106 135.1 37.8047 134.864 37.651C134.582 37.4744 134.38 37.2518 134.258 36.984C134.12 36.6678 134.05 36.2496 134.05 35.7322C134.05 35.1417 134.166 34.6948 134.399 34.3925C134.562 34.1871 134.729 34.0451 134.9 33.9679C135.07 33.889 135.352 33.8241 135.744 33.7716C135.261 33.4907 135.02 33.0455 135.02 32.4368C135.02 31.8175 135.247 31.392 135.703 31.1596C136.075 30.9715 136.8 30.8779 137.878 30.8779C139.636 30.8779 140.743 31.0273 141.198 31.3263C141.418 31.4693 141.568 31.645 141.648 31.8553C141.727 32.0664 141.768 32.3884 141.768 32.8229V33.0939H140.855V32.7605C140.855 32.4122 140.794 32.1723 140.672 32.0409C140.554 31.9087 140.283 31.8217 139.859 31.7798C139.491 31.742 138.919 31.7223 138.144 31.7223C137.459 31.7223 136.994 31.7338 136.754 31.756C136.512 31.7789 136.339 31.8258 136.236 31.8948C136.05 32.0196 135.959 32.216 135.959 32.4837C135.959 32.7416 136.043 32.9535 136.212 33.1227C136.379 33.2911 136.735 33.5203 137.277 33.8077L141.543 36.0666C141.571 35.6 141.583 35.3257 141.58 35.2419V34.5381V34.5381ZM136.438 34.2776C135.978 34.3088 135.649 34.3902 135.447 34.5224C135.141 34.7212 134.989 35.136 134.989 35.7693C134.989 36.1898 135.053 36.5003 135.182 36.7024C135.31 36.9036 135.526 37.0293 135.828 37.0778C136.322 37.1616 137.292 37.2035 138.737 37.2035C139.604 37.2035 140.214 37.1755 140.568 37.1197C140.922 37.0638 141.154 36.9595 141.262 36.8067L136.438 34.2776Z" fill="#164194">
 </path>
 <path d="M146.434 30.8933H154.521V31.7279H150.959V38.0115H150.011V31.7279H146.434V30.8933Z" fill="#164194">
 </path>
 <path d="M159.117 36.4832H159.936C159.921 37.0745 159.713 37.4869 159.31 37.7218C158.907 37.9559 158.204 38.0733 157.203 38.0733C156.376 38.0733 155.748 38.0413 155.318 37.9773C154.888 37.9132 154.565 37.8048 154.345 37.652C153.844 37.2971 153.595 36.5965 153.595 35.5501C153.595 34.8166 153.701 34.2654 153.913 33.8974C154.115 33.5459 154.406 33.3084 154.786 33.1853C155.167 33.0621 155.802 33.0005 156.692 33.0005C157.544 33.0005 158.159 33.0449 158.538 33.1352C158.917 33.2263 159.22 33.4005 159.445 33.6567C159.633 33.8728 159.762 34.1233 159.832 34.4084C159.901 34.6934 159.938 35.1279 159.946 35.7118H154.434C154.456 36.3271 154.577 36.7493 154.8 36.9784C154.949 37.1353 155.188 37.2421 155.517 37.2996C155.845 37.3562 156.379 37.3858 157.119 37.3858C157.68 37.3858 158.089 37.3595 158.351 37.307C158.611 37.2553 158.806 37.1591 158.935 37.0202C159.032 36.9128 159.092 36.7337 159.117 36.4832ZM159.081 35.0441C159.077 34.5611 158.949 34.2236 158.695 34.0322C158.528 33.9041 158.294 33.8145 157.993 33.7644C157.693 33.7134 157.252 33.6887 156.672 33.6887C156.163 33.6887 155.778 33.7118 155.511 33.7586C155.246 33.8055 155.038 33.8884 154.888 34.0067C154.641 34.198 154.498 34.5439 154.46 35.0441H159.081V35.0441Z" fill="#164194">
 </path>
 <path d="M166.263 36.2228H167.061C167.05 36.8241 166.913 37.2627 166.649 37.5371C166.458 37.7383 166.199 37.8788 165.875 37.956C165.549 38.0348 165.067 38.0734 164.427 38.0734C163.572 38.0734 162.94 38.0422 162.529 37.9798C162.119 37.9173 161.805 37.8049 161.585 37.6414C161.102 37.2759 160.861 36.5793 160.861 35.5501C160.861 34.8232 160.965 34.277 161.174 33.9131C161.378 33.5574 161.674 33.3176 162.06 33.1902C162.446 33.0638 163.079 33.0005 163.958 33.0005C164.751 33.0005 165.34 33.0408 165.726 33.1229C166.111 33.2042 166.405 33.3479 166.607 33.5533C166.749 33.6987 166.853 33.8687 166.917 34.0618C166.982 34.254 167.02 34.5111 167.034 34.8306H166.216C166.206 34.3648 166.053 34.0584 165.76 33.9098C165.466 33.7628 164.865 33.6888 163.958 33.6888C163.068 33.6888 162.486 33.7784 162.211 33.9591C162.03 34.0782 161.899 34.268 161.817 34.53C161.736 34.7928 161.695 35.1518 161.695 35.6068C161.695 36.0388 161.745 36.3781 161.844 36.627C161.943 36.8759 162.098 37.0533 162.31 37.1609C162.602 37.3113 163.257 37.3859 164.276 37.3859C165.079 37.3859 165.607 37.3112 165.858 37.1641C166.11 37.0162 166.246 36.7017 166.263 36.2228Z" fill="#164194">
 </path>
 <path d="M168.106 30.8933H168.889V33.7978H168.95C169.117 33.4889 169.376 33.2779 169.727 33.1678C170.078 33.0553 170.657 33.0002 171.464 33.0002C172.146 33.0002 172.661 33.0397 173.013 33.1202C173.364 33.1999 173.635 33.3395 173.826 33.5374C173.993 33.7116 174.104 33.9252 174.16 34.1789C174.215 34.4327 174.243 34.8524 174.243 35.4406V38.0116H173.461V35.6854C173.461 35.1744 173.444 34.8205 173.409 34.6217C173.374 34.4237 173.3 34.2552 173.185 34.1165C173.06 33.9588 172.859 33.8496 172.583 33.7847C172.306 33.7206 171.901 33.6886 171.364 33.6886C170.763 33.6886 170.294 33.7313 169.957 33.8167C169.62 33.9013 169.366 34.0393 169.196 34.2307C169.066 34.3769 168.983 34.5387 168.945 34.7161C168.907 34.8936 168.889 35.2163 168.889 35.6854V38.0116H168.106V30.8933V30.8933Z" fill="#164194">
 </path>
 <path d="M175.366 33.0628H176.149V33.8086H176.206C176.372 33.4916 176.628 33.2781 176.97 33.1671C177.312 33.0562 177.89 32.9996 178.704 32.9996C179.413 32.9996 179.938 33.039 180.281 33.1179C180.623 33.196 180.893 33.3372 181.086 33.5425C181.239 33.706 181.347 33.9105 181.407 34.1553C181.468 34.4 181.499 34.754 181.499 35.2165V38.0109H180.716V35.55C180.716 35.1081 180.698 34.791 180.662 34.5987C180.625 34.4057 180.551 34.2431 180.44 34.1109C180.308 33.9581 180.106 33.8497 179.832 33.7848C179.559 33.7207 179.152 33.6879 178.61 33.6879C178.004 33.6879 177.533 33.7331 177.196 33.8209C176.86 33.9105 176.606 34.055 176.436 34.2571C176.317 34.4025 176.24 34.5676 176.204 34.7491C176.166 34.9323 176.149 35.2567 176.149 35.7217V38.0109H175.366V33.0628V33.0628Z" fill="#164194">
 </path>
 <path d="M185.563 33.0005C186.341 33.0005 186.917 33.0235 187.286 33.0711C187.656 33.118 187.946 33.2034 188.154 33.3291C188.468 33.5172 188.693 33.7833 188.832 34.1291C188.972 34.4749 189.042 34.9448 189.042 35.5395C189.042 36.1998 188.957 36.7026 188.791 37.0467C188.669 37.3071 188.506 37.5108 188.303 37.6569C188.101 37.8024 187.833 37.9091 187.503 37.9749C187.182 38.0406 186.652 38.0734 185.907 38.0734C185.205 38.0734 184.675 38.0505 184.317 38.0028C183.959 37.9567 183.668 37.8722 183.447 37.7506C183.116 37.5732 182.879 37.312 182.737 36.9653C182.594 36.6203 182.522 36.1356 182.522 35.5132C182.522 34.8173 182.625 34.2917 182.83 33.9328C183.039 33.5657 183.327 33.3183 183.696 33.1927C184.064 33.0679 184.687 33.0038 185.563 33.0005ZM185.688 33.688C185.171 33.688 184.779 33.7077 184.514 33.7455C184.251 33.7841 184.04 33.8539 183.884 33.955C183.7 34.0724 183.566 34.2589 183.482 34.5152C183.399 34.7706 183.358 35.1189 183.358 35.5607C183.358 36.061 183.413 36.4355 183.524 36.6836C183.635 36.9325 183.826 37.109 184.097 37.2134C184.396 37.3276 184.979 37.3851 185.845 37.3851C186.408 37.3851 186.822 37.3654 187.089 37.3227C187.354 37.2816 187.565 37.2027 187.722 37.0885C187.895 36.967 188.02 36.7846 188.095 36.5407C188.17 36.2975 188.206 35.955 188.206 35.5132C188.206 34.9923 188.147 34.6096 188.03 34.3665C187.897 34.0954 187.677 33.9139 187.369 33.8244C187.062 33.734 186.501 33.688 185.688 33.688Z" fill="#164194">
 </path>
 <path d="M190.916 30.8933H190.133V38.0114H190.916V30.8933Z" fill="#164194">
 </path>
 <path d="M195.053 33.0005C195.831 33.0005 196.406 33.0235 196.776 33.0711C197.145 33.118 197.435 33.2034 197.644 33.3291C197.957 33.5172 198.182 33.7833 198.322 34.1291C198.461 34.4749 198.531 34.9448 198.531 35.5395C198.531 36.1998 198.447 36.7026 198.28 37.0467C198.158 37.3071 197.996 37.5108 197.793 37.6569C197.59 37.8024 197.322 37.9091 196.992 37.9749C196.671 38.0406 196.14 38.0734 195.397 38.0734C194.694 38.0734 194.165 38.0505 193.806 38.0028C193.448 37.9567 193.158 37.8722 192.936 37.7506C192.606 37.5732 192.369 37.312 192.226 36.9653C192.083 36.6203 192.012 36.1356 192.012 35.5132C192.012 34.8173 192.114 34.2917 192.32 33.9328C192.528 33.5657 192.817 33.3183 193.185 33.1927C193.554 33.0679 194.176 33.0038 195.053 33.0005ZM195.177 33.688C194.66 33.688 194.268 33.7077 194.004 33.7455C193.74 33.7841 193.53 33.8539 193.373 33.955C193.19 34.0724 193.056 34.2589 192.971 34.5152C192.888 34.7706 192.846 35.1189 192.846 35.5607C192.846 36.061 192.901 36.4355 193.013 36.6836C193.125 36.9325 193.316 37.109 193.586 37.2134C193.885 37.3276 194.469 37.3851 195.333 37.3851C195.897 37.3851 196.312 37.3654 196.578 37.3227C196.843 37.2816 197.054 37.2027 197.212 37.0885C197.384 36.967 197.509 36.7846 197.585 36.5407C197.659 36.2975 197.696 35.955 197.696 35.5132C197.696 34.9923 197.637 34.6096 197.519 34.3665C197.386 34.0954 197.167 33.9139 196.859 33.8244C196.552 33.734 195.991 33.688 195.177 33.688Z" fill="#164194">
 </path>
 <path d="M205.129 33.063H205.915V36.765C205.915 37.5469 205.876 38.1375 205.796 38.5375C205.723 38.9129 205.525 39.2193 205.201 39.4558C204.99 39.6086 204.697 39.7129 204.328 39.7679C203.958 39.8246 203.372 39.8517 202.573 39.8517C201.745 39.8517 201.132 39.8 200.732 39.6948C200.333 39.5913 200.035 39.4073 199.84 39.1428C199.747 39.0179 199.686 38.8947 199.656 38.7748C199.625 38.6557 199.611 38.48 199.611 38.2508H200.415C200.432 38.4348 200.467 38.5769 200.518 38.6763C200.571 38.7748 200.659 38.8586 200.783 38.9284C201.059 39.0894 201.627 39.1683 202.49 39.1683C203.234 39.1683 203.774 39.1371 204.111 39.0722C204.448 39.0081 204.685 38.8906 204.82 38.7206C204.928 38.5818 205.001 38.4166 205.04 38.2277C205.078 38.038 205.106 37.6914 205.123 37.187H205.07C204.855 37.4549 204.6 37.629 204.305 37.7086C204.008 37.7892 203.459 37.8286 202.657 37.8286C201.989 37.8286 201.47 37.799 201.103 37.7399C200.734 37.6808 200.454 37.5805 200.263 37.4376C199.992 37.2389 199.794 36.9769 199.669 36.6499C199.544 36.323 199.481 35.9065 199.481 35.3981C199.481 34.3006 199.818 33.591 200.492 33.2715C200.708 33.1704 200.986 33.0997 201.327 33.0595C201.668 33.0201 202.164 32.9996 202.818 32.9996C203.357 32.9996 203.748 33.0152 203.988 33.0472C204.231 33.0785 204.434 33.1392 204.601 33.2288C204.807 33.3479 204.97 33.5039 205.092 33.6986H205.139L205.129 33.063ZM202.818 33.688C201.851 33.688 201.21 33.7686 200.893 33.9279C200.507 34.1258 200.315 34.6252 200.315 35.4244C200.315 36.2352 200.533 36.7436 200.967 36.9531C201.227 37.078 201.809 37.1404 202.714 37.1404C203.698 37.1404 204.324 37.055 204.591 36.8849C204.786 36.7592 204.924 36.5794 205.005 36.342C205.087 36.1062 205.129 35.7711 205.129 35.3358C205.129 34.9226 205.082 34.6063 204.988 34.387C204.893 34.1677 204.733 34.0051 204.508 33.8967C204.223 33.7579 203.659 33.688 202.818 33.688Z" fill="#164194">
 </path>
 <path d="M206.548 33.0627H207.466L209.854 37.375H209.958L212.176 33.0627H213.093L210.683 37.6675C210.398 38.2129 210.173 38.6022 210.008 38.8347C209.843 39.068 209.661 39.2545 209.463 39.3932C209.275 39.5214 209.07 39.6101 208.848 39.6586C208.626 39.7079 208.313 39.7318 207.909 39.7318C207.735 39.7318 207.588 39.7284 207.466 39.721V39.0073C207.591 39.0179 207.711 39.0229 207.826 39.0229C208.345 39.0229 208.71 38.9605 208.927 38.8348C209.141 38.7099 209.366 38.4323 209.599 38.0011H209.334L206.548 33.0627Z" fill="#164194">
 </path>
 <path d="M31.831 19.0677H30.2153V20.6834H31.831V19.0677Z" fill="#164194">
 </path>
 <path d="M31.831 22.2579H30.2153V34.9822H31.831V22.2579Z" fill="#164194">
 </path>
 <path d="M34.9814 19.067H36.5971V22.2581H42.939V23.8335H36.5971V31.7912C36.5971 32.6807 37.2837 33.4068 38.1725 33.4068H42.939V34.9822H38.1725C36.5165 34.9822 34.9814 33.6491 34.9814 31.7912V23.8335H32.5986V22.2581H34.9814V19.067H34.9814Z" fill="#164194">
 </path>
 <path d="M26.8223 27.025H16.1984C16.2386 25.8537 16.5212 25.0454 17.0871 24.601C17.4502 24.2782 17.9348 24.0761 18.6223 23.9546C19.2679 23.7936 20.2372 23.7533 21.53 23.7533C22.7826 23.7533 23.7519 23.7936 24.4386 23.9546C25.085 24.0761 25.6099 24.2782 25.9737 24.601C26.5389 25.0454 26.8223 25.8537 26.8223 27.025ZM16.1984 28.6406H28.64C28.64 27.227 28.5587 26.1764 28.3977 25.4898C28.2359 24.8031 27.9533 24.1977 27.5484 23.672C27.0243 23.0658 26.3779 22.6215 25.5285 22.4194C24.7211 22.2182 23.3486 22.0966 21.4898 22.0966C19.5915 22.0966 18.2585 22.2182 17.4099 22.4194C16.5614 22.6215 15.9158 23.0658 15.4304 23.672C14.986 24.1977 14.7035 24.8031 14.5827 25.4898C14.4209 26.1764 14.3404 27.227 14.2993 28.6406C14.3404 30.0141 14.4209 31.0646 14.5827 31.7512C14.7035 32.4379 14.986 33.0433 15.4304 33.5689C15.9158 34.1743 16.5614 34.6187 17.4099 34.8207C18.2585 35.063 19.5915 35.1436 21.4898 35.1436C23.3486 35.1436 24.7211 35.063 25.5285 34.8207C26.3779 34.6187 27.0243 34.1743 27.5484 33.5689C27.872 33.1648 28.1152 32.6794 28.2761 32.1955H26.3779C26.2563 32.3566 26.1356 32.5184 25.9737 32.6794C25.6099 32.9628 25.085 33.205 24.4386 33.3266C23.7519 33.4482 22.7826 33.4884 21.53 33.4884C20.2372 33.4884 19.2679 33.4483 18.6223 33.3266C17.9348 33.2051 17.4502 32.9628 17.0871 32.6794C16.6025 32.2761 16.3191 31.5894 16.2386 30.6604C16.1984 30.0141 16.1984 29.2871 16.1984 28.6406Z" fill="#164194">
 </path>
 <path d="M28.6395 57.2387C44.434 57.2387 57.2798 44.4341 57.2798 28.6395C57.2798 12.8047 44.434 0 28.6395 0C23.4286 0 18.5413 1.37339 14.3398 3.8376L15.9153 6.58432C19.6724 4.40352 23.9945 3.19115 28.6395 3.19115C42.6968 3.19115 54.0879 14.5822 54.0879 28.6395C54.0879 42.6566 42.6968 54.0886 28.6395 54.0886C14.5822 54.0886 3.19109 42.6565 3.19109 28.6395H0C0 44.4341 12.8457 57.2387 28.6395 57.2387Z" fill="#164194">
 </path>
</svg>