<?xml version="1.0"?>
<svg width="126" height="117" xmlns="http://www.w3.org/2000/svg" xmlns:svg="http://www.w3.org/2000/svg">
 <defs>
  <style>.cls-1{fill:#0067ac;}.cls-2{fill:#a6835a;}</style>
 </defs>
 <title>Bank of Slovakia</title>
 <g class="layer">
  <title>Layer 1</title>
  <path class="cls-2" d="m36.56,46.85l-4.91,0l0,-4.91a3.52,3.52 0 0 1 4.91,4.91m34.32,60.82a51.97,51.97 0 0 1 -26.02,-6.97c0,-0.08 -0.01,-0.16 -0.01,-0.25a13.35,13.35 0 0 1 5.39,-10.68l0.6,-0.44l0.01,-4.36a16.39,16.39 0 0 0 6.07,-4.67a20.68,20.68 0 0 0 9.97,2.58l-1.59,6.33l9.41,0l0,-2.95l-5.62,0l5.16,-20.55l-7.94,-6.76l-0.55,0a4.28,4.28 0 0 1 -3.16,-7.17l0.07,-0.08l0.06,-0.09c1.95,-2.87 2.32,-7.47 2.36,-9.96l-2.95,-0.05c-0.07,3.56 -0.74,6.64 -1.8,8.27a7.24,7.24 0 0 0 -1.31,7.45l-9.25,0a16.4,16.4 0 0 0 -6.29,1.25a14.58,14.58 0 0 0 -24.41,2.41c-0.16,-1.58 -0.23,-3.26 -0.23,-5.34a51.65,51.65 0 0 1 10.02,-30.7l0,7.76l0.43,0.44a6.44,6.44 0 0 0 8.19,0.74a46.43,46.43 0 0 1 3.79,4.1a12.63,12.63 0 0 1 -3.26,2.09a6.39,6.39 0 0 0 -8.82,0.2l-0.42,0.42l0,9.03l9.03,0l0.42,-0.42a6.39,6.39 0 0 0 1.46,-6.74a15.57,15.57 0 0 0 3.39,-2.23a46.3,46.3 0 0 1 3.53,5.74l-3.76,1.44l1.05,2.76l3.99,-1.52a47.08,47.08 0 0 1 1.67,4.42l2.82,-0.91q-0.75,-2.32 -1.73,-4.56l4.25,-1.62a6.35,6.35 0 0 0 3.83,-4.08l2.42,-7.81a3.58,3.58 0 0 1 3.42,-2.5c0.1,0 0.2,0 0.29,0.01l0.32,0.1l0.62,-1.81l0.03,-0.1a8.37,8.37 0 0 0 -1.05,-6.54a5.72,5.72 0 0 1 -0.89,-2.64a4.15,4.15 0 1 1 8.3,0c0,3.99 -0.64,5.31 -2.77,5.64l-1.06,0.17l-0.79,4.79l0.85,0.52c4.16,2.57 2.77,9.46 1.95,13.57c-0.03,0.13 -0.05,0.26 -0.08,0.38c-0.63,2.9 -2.07,7.1 -2.09,7.14l-0.28,0.8l9.9,11.7l-6.03,16.61l2.78,1.01l0,0a16.66,16.66 0 0 0 9.4,2.85c0.46,0 0.92,-0.01 1.38,-0.05a17.16,17.16 0 0 0 12.32,5.21a16.99,16.99 0 0 0 7.18,-1.57l-1.24,-2.68a14.2,14.2 0 0 1 -16.55,-3.47l-0.44,-0.49l-0.91,0l-0.17,0.01a13.58,13.58 0 0 1 -9.9,-2.77l5.55,-15.26l-5.17,-6.11a36.45,36.45 0 0 1 3.66,-2.09l0.99,-0.49l-0.19,-1.09c-0.08,-0.49 -0.15,-0.98 -0.2,-1.48a26.32,26.32 0 0 0 13.08,0.92a29.44,29.44 0 0 0 2.45,7.89c0.55,1.29 1.95,5 1.95,7.02c0,3.64 -1.89,8.14 -4.36,10.24a27.28,27.28 0 0 1 -3.27,2.55l21.51,0.02a26.99,26.99 0 0 1 2.26,2.71a51.97,51.97 0 0 1 -43.02,22.76m-35.34,-49.79a9.77,9.77 0 0 0 -9.76,9.69l0,0a10.96,10.96 0 0 1 -15.92,9.78c0.27,0.02 0.54,0.03 0.81,0.03a9.77,9.77 0 0 0 9.77,-9.76l-0.01,-0.25a11.63,11.63 0 0 1 19.16,-8.62a9.71,9.71 0 0 0 -4.05,-0.87m-2.26,15.94l0,3.73a12.44,12.44 0 0 1 -4.03,9.31a55.73,55.73 0 0 1 -5.34,-8.76a13.9,13.9 0 0 0 4.82,-10.46l0.01,0a6.81,6.81 0 0 1 9.96,-6.03a16.46,16.46 0 0 0 -5.42,12.21m3.02,-42.78a3.47,3.47 0 0 1 -4.48,0.37l0,-4.84l4.85,0a3.48,3.48 0 0 1 -0.37,4.47m10.83,-4.56l4.84,0l0,4.84a3.47,3.47 0 0 1 -4.11,-0.06l-0.25,-0.21c-0.04,-0.03 -0.08,-0.06 -0.11,-0.1a3.48,3.48 0 0 1 -0.37,-4.47m30.27,27.98a33,33 0 0 0 -3.3,1.98l-2.84,-3.35c0.28,-0.85 0.74,-2.26 1.17,-3.76a25.99,25.99 0 0 0 4.79,2.99q0.05,1.08 0.18,2.14m-43.31,-35.61a52.03,52.03 0 0 1 73.58,0c0.78,0.78 1.52,1.58 2.24,2.39l-0.39,0.38a17.03,17.03 0 0 0 -3.6,5.01a24.87,24.87 0 0 0 -28.64,22.39a23.16,23.16 0 0 1 -4.04,-2.86c0.04,-0.21 0.08,-0.41 0.11,-0.6c0.88,-4.39 2.2,-11.88 -2.55,-15.66l0.15,-0.87c4.2,-1.33 4.2,-5.99 4.2,-8.32a7.11,7.11 0 1 0 -14.21,0a8.38,8.38 0 0 0 1.22,4a5.58,5.58 0 0 1 0.86,4.21a6.51,6.51 0 0 0 -4.69,4.38l-2.42,7.82a3.41,3.41 0 0 1 -2.06,2.19l-4.46,1.71a49.48,49.48 0 0 0 -4.14,-6.73a12.74,12.74 0 0 1 1.3,-4.34a6.44,6.44 0 0 0 7.94,-0.91l0.44,-0.43l0,-9.09l-9.09,0l-0.43,0.43a6.43,6.43 0 0 0 -1.02,7.78a15.69,15.69 0 0 0 -1.53,3.53q-1.6,-1.86 -3.38,-3.57a6.44,6.44 0 0 0 -1.09,-7.64l-0.43,-0.44l-8.09,0a52.53,52.53 0 0 1 4.22,-4.76m62.54,24.51a10.72,10.72 0 0 0 5.46,4.29a23.21,23.21 0 0 1 -6.14,3.12c-0.02,-0.42 -0.04,-0.84 -0.04,-1.26a26.44,26.44 0 0 1 0.72,-6.15m-1.65,-4.59a29.27,29.27 0 0 0 -2.02,10.74c0,0.68 0.02,1.35 0.07,2.02a23.35,23.35 0 0 1 -12.87,-1.15a21.93,21.93 0 0 1 26.5,-20.61l1.57,0.33l0.21,-1.58a6.03,6.03 0 0 1 1.05,-2.29l3.16,25.56c0,0.04 0.01,0.07 0.01,0.11a1.92,1.92 0 1 1 -3.84,0a1.89,1.89 0 0 1 0.04,-0.35l0.36,-1.25l-0.97,-0.59a5.29,5.29 0 0 1 -2.31,-6.07l-2.83,-0.87a8.25,8.25 0 0 0 -0.35,1.97a7.81,7.81 0 0 1 -4.61,-9.36l-2.84,-0.8a10.79,10.79 0 0 0 -0.4,2.92a10.61,10.61 0 0 0 0.07,1.27m27.93,16.87a51.51,51.51 0 0 1 -4.26,20.67a29.42,29.42 0 0 0 -2.82,-3.21l-0.43,-0.44l-15.04,0a15.9,15.9 0 0 0 0.36,-3.27c0,-3 -1.98,-7.69 -2.21,-8.21l-0.02,-0.06a26.83,26.83 0 0 1 -2.24,-7.35a26.11,26.11 0 0 0 7.9,-3.96a8.23,8.23 0 0 0 1.73,1.85c-0.01,0.08 -0.01,0.16 -0.01,0.24a4.87,4.87 0 1 0 9.64,-1l-3.32,-26.89a51.63,51.63 0 0 1 10.72,31.63m-10.04,23.61l-15.29,-0.01a18.36,18.36 0 0 0 1.89,-3.62l14.7,0a23.58,23.58 0 0 1 3.45,4.45l1.4,2.31l1.19,-2.42a54.99,54.99 0 0 0 -88.21,-63.2a54.64,54.64 0 0 0 -16.1,38.88l-0.07,0l0,0l0.07,0a47.23,47.23 0 0 0 0.68,8.86l0,0.01c0.23,1.36 0.5,2.74 0.83,4.08a6.8,6.8 0 0 1 -13.54,-0.77l-2.87,1.36c0.6,7.25 6.24,12.31 13.81,12.31a13.85,13.85 0 0 0 6.64,-1.69a58.67,58.67 0 0 0 5.47,8.87a16.32,16.32 0 0 0 -5.56,12.18a15.91,15.91 0 0 0 3.5,9.82l0.15,0.2l0.21,0.13a4.25,4.25 0 0 1 1.93,3.64l0,1.48l7.95,0l0,-2.96l-5.14,0a7.08,7.08 0 0 0 -2.91,-4.49a13.01,13.01 0 0 1 -2.73,-7.82a13.32,13.32 0 0 1 6.07,-11.1l0.12,-0.09a15.33,15.33 0 0 0 5.73,-12.11l0,-3.73a13.56,13.56 0 0 1 13.54,-13.55l11.41,0a7.2,7.2 0 0 0 4,1.61l5.74,4.89l-3.29,13.13c-0.24,0.01 -0.48,0.02 -0.71,0.02a17.7,17.7 0 0 1 -8.36,-2.09a17.05,17.05 0 0 0 0.8,-1.68l-2.73,-1.12a13.5,13.5 0 0 1 -12.54,8.41c-0.26,0 -0.78,-0.02 -0.96,-0.03l-1.35,-0.07l-0.19,1.34a10.72,10.72 0 0 1 -12.43,9.06l-0.5,2.91a13.91,13.91 0 0 0 2.32,0.2a13.73,13.73 0 0 0 13.29,-10.45a16.62,16.62 0 0 0 3.61,-0.44l0,1.9a16.19,16.19 0 0 0 -2.25,22.93l0.14,0.18l0.19,0.12a4.01,4.01 0 0 1 1.8,3.55l0,1.48l7.96,0l0,-2.96l-5.13,0a6.75,6.75 0 0 0 -2.81,-4.41a13.53,13.53 0 0 1 -2.31,-4.33a55.02,55.02 0 0 0 70.16,-16.83a26.91,26.91 0 0 1 3.47,13.65l-5.01,0l0,2.96l7.81,0l0.09,-1.38a29.89,29.89 0 0 0 -8.69,-23.14l-0.44,-0.43z" id="svg_32"/>
  <rect class="cls-2" height="4.1" id="svg_33" transform="rotate(-6.99722 -3.58543 13.2082)" width="2.96" x="101.16" y="47.09"/>
 </g>
</svg>